<mxfile host="app.diagrams.net" modified="2021-11-05T04:39:14.589Z" agent="5.0 (Windows NT 10.0; Win64; x64) AppleWebKit/537.36 (KHTML, like Gecko) Chrome/95.0.4638.69 Safari/537.36" etag="n1re4Ck8ScdnPjmjwEh2" version="15.6.8" type="github">
  <diagram id="inNNHL4jC_mw0NiZv7Ve" name="Page-1">
    <mxGraphModel dx="2035" dy="1770" grid="1" gridSize="10" guides="1" tooltips="1" connect="1" arrows="1" fold="1" page="1" pageScale="1" pageWidth="850" pageHeight="1100" math="0" shadow="0">
      <root>
        <mxCell id="0" />
        <mxCell id="1" parent="0" />
        <mxCell id="tCPC2FqYTnkMphjOXLfU-107" style="edgeStyle=orthogonalEdgeStyle;rounded=0;orthogonalLoop=1;jettySize=auto;html=1;entryX=0.5;entryY=0;entryDx=0;entryDy=0;labelBackgroundColor=default;fontSize=14;fontColor=default;strokeColor=default;fillColor=default;" parent="1" source="mBkj3tF8xL0pVeo7LYhA-1" target="mBkj3tF8xL0pVeo7LYhA-4" edge="1">
          <mxGeometry relative="1" as="geometry" />
        </mxCell>
        <mxCell id="tCPC2FqYTnkMphjOXLfU-108" style="edgeStyle=orthogonalEdgeStyle;rounded=0;orthogonalLoop=1;jettySize=auto;html=1;entryX=0.5;entryY=0;entryDx=0;entryDy=0;labelBackgroundColor=default;fontSize=14;fontColor=default;strokeColor=default;fillColor=default;" parent="1" source="mBkj3tF8xL0pVeo7LYhA-1" target="mBkj3tF8xL0pVeo7LYhA-2" edge="1">
          <mxGeometry relative="1" as="geometry" />
        </mxCell>
        <mxCell id="tCPC2FqYTnkMphjOXLfU-109" style="edgeStyle=orthogonalEdgeStyle;rounded=0;orthogonalLoop=1;jettySize=auto;html=1;entryX=0.5;entryY=0;entryDx=0;entryDy=0;labelBackgroundColor=default;fontSize=14;fontColor=default;strokeColor=default;fillColor=default;" parent="1" source="mBkj3tF8xL0pVeo7LYhA-1" target="mBkj3tF8xL0pVeo7LYhA-3" edge="1">
          <mxGeometry relative="1" as="geometry">
            <Array as="points">
              <mxPoint x="360" y="20" />
              <mxPoint x="360" y="20" />
            </Array>
          </mxGeometry>
        </mxCell>
        <mxCell id="mBkj3tF8xL0pVeo7LYhA-1" value="&lt;font style=&quot;font-size: 16px&quot;&gt;Aриза юбориш&lt;/font&gt;" style="shape=ext;double=1;rounded=1;whiteSpace=wrap;html=1;fillColor=#dae8fc;strokeColor=#6c8ebf;fontColor=default;" parent="1" vertex="1">
          <mxGeometry x="305" y="-20" width="120" height="80" as="geometry" />
        </mxCell>
        <mxCell id="tCPC2FqYTnkMphjOXLfU-102" style="edgeStyle=orthogonalEdgeStyle;rounded=0;orthogonalLoop=1;jettySize=auto;html=1;entryX=0.5;entryY=0;entryDx=0;entryDy=0;labelBackgroundColor=default;fontSize=14;fontColor=default;strokeColor=default;fillColor=default;" parent="1" source="mBkj3tF8xL0pVeo7LYhA-2" target="mBkj3tF8xL0pVeo7LYhA-5" edge="1">
          <mxGeometry relative="1" as="geometry">
            <Array as="points">
              <mxPoint x="480" y="220" />
              <mxPoint x="360" y="220" />
            </Array>
          </mxGeometry>
        </mxCell>
        <mxCell id="mBkj3tF8xL0pVeo7LYhA-2" value="Call-center" style="ellipse;whiteSpace=wrap;html=1;aspect=fixed;fontSize=16;fontColor=default;strokeColor=default;fillColor=default;" parent="1" vertex="1">
          <mxGeometry x="440" y="110" width="80" height="80" as="geometry" />
        </mxCell>
        <mxCell id="tCPC2FqYTnkMphjOXLfU-104" style="edgeStyle=orthogonalEdgeStyle;rounded=0;orthogonalLoop=1;jettySize=auto;html=1;entryX=0.5;entryY=0;entryDx=0;entryDy=0;labelBackgroundColor=default;fontSize=14;fontColor=default;strokeColor=default;fillColor=default;" parent="1" source="mBkj3tF8xL0pVeo7LYhA-3" target="mBkj3tF8xL0pVeo7LYhA-5" edge="1">
          <mxGeometry relative="1" as="geometry" />
        </mxCell>
        <mxCell id="mBkj3tF8xL0pVeo7LYhA-3" value="Телеграм бот" style="ellipse;whiteSpace=wrap;html=1;aspect=fixed;fontSize=16;fontColor=default;strokeColor=default;fillColor=default;" parent="1" vertex="1">
          <mxGeometry x="320" y="110" width="80" height="80" as="geometry" />
        </mxCell>
        <mxCell id="tCPC2FqYTnkMphjOXLfU-105" style="edgeStyle=orthogonalEdgeStyle;rounded=0;orthogonalLoop=1;jettySize=auto;html=1;entryX=0.5;entryY=0;entryDx=0;entryDy=0;labelBackgroundColor=default;fontSize=14;fontColor=default;strokeColor=default;fillColor=default;" parent="1" source="mBkj3tF8xL0pVeo7LYhA-4" target="mBkj3tF8xL0pVeo7LYhA-5" edge="1">
          <mxGeometry relative="1" as="geometry">
            <Array as="points">
              <mxPoint x="240" y="220" />
              <mxPoint x="360" y="220" />
            </Array>
          </mxGeometry>
        </mxCell>
        <mxCell id="mBkj3tF8xL0pVeo7LYhA-4" value="Wеб-сайт" style="ellipse;whiteSpace=wrap;html=1;aspect=fixed;fontSize=16;fontColor=default;strokeColor=default;fillColor=default;" parent="1" vertex="1">
          <mxGeometry x="200" y="110" width="80" height="80" as="geometry" />
        </mxCell>
        <mxCell id="tCPC2FqYTnkMphjOXLfU-100" style="edgeStyle=orthogonalEdgeStyle;rounded=0;orthogonalLoop=1;jettySize=auto;html=1;entryX=0.5;entryY=0;entryDx=0;entryDy=0;labelBackgroundColor=default;fontSize=14;fontColor=default;strokeColor=default;fillColor=default;" parent="1" source="mBkj3tF8xL0pVeo7LYhA-5" target="mBkj3tF8xL0pVeo7LYhA-6" edge="1">
          <mxGeometry relative="1" as="geometry" />
        </mxCell>
        <mxCell id="mBkj3tF8xL0pVeo7LYhA-5" value="Aриза келиб тушди" style="rounded=1;whiteSpace=wrap;html=1;fontSize=16;fontColor=default;strokeColor=default;fillColor=default;" parent="1" vertex="1">
          <mxGeometry x="300" y="280" width="120" height="60" as="geometry" />
        </mxCell>
        <mxCell id="tCPC2FqYTnkMphjOXLfU-247" style="edgeStyle=orthogonalEdgeStyle;rounded=0;orthogonalLoop=1;jettySize=auto;html=1;entryX=0.5;entryY=0;entryDx=0;entryDy=0;labelBackgroundColor=default;fontSize=20;fontColor=default;strokeColor=default;fillColor=default;" parent="1" source="mBkj3tF8xL0pVeo7LYhA-6" target="tCPC2FqYTnkMphjOXLfU-246" edge="1">
          <mxGeometry relative="1" as="geometry" />
        </mxCell>
        <mxCell id="tCPC2FqYTnkMphjOXLfU-252" value="Йўқ" style="edgeLabel;html=1;align=center;verticalAlign=middle;resizable=0;points=[];fontSize=20;fontColor=default;" parent="tCPC2FqYTnkMphjOXLfU-247" vertex="1" connectable="0">
          <mxGeometry x="-0.1711" y="1" relative="1" as="geometry">
            <mxPoint as="offset" />
          </mxGeometry>
        </mxCell>
        <mxCell id="tCPC2FqYTnkMphjOXLfU-250" style="edgeStyle=orthogonalEdgeStyle;rounded=0;orthogonalLoop=1;jettySize=auto;html=1;labelBackgroundColor=default;fontSize=20;fontColor=default;strokeColor=default;fillColor=default;" parent="1" source="mBkj3tF8xL0pVeo7LYhA-6" edge="1">
          <mxGeometry relative="1" as="geometry">
            <mxPoint x="100" y="740" as="targetPoint" />
            <Array as="points">
              <mxPoint x="100" y="485" />
              <mxPoint x="100" y="730" />
            </Array>
          </mxGeometry>
        </mxCell>
        <mxCell id="tCPC2FqYTnkMphjOXLfU-251" value="Ҳа" style="edgeLabel;html=1;align=center;verticalAlign=middle;resizable=0;points=[];fontSize=20;fontColor=default;" parent="tCPC2FqYTnkMphjOXLfU-250" vertex="1" connectable="0">
          <mxGeometry x="-0.4325" y="-3" relative="1" as="geometry">
            <mxPoint x="-1" as="offset" />
          </mxGeometry>
        </mxCell>
        <mxCell id="mBkj3tF8xL0pVeo7LYhA-6" value="&lt;div&gt;Ишлаш шароити&lt;/div&gt;&lt;div&gt;ёмон,&lt;/div&gt;&lt;div&gt;Бошқа,&lt;/div&gt;&lt;div&gt;(туман вакан)&lt;/div&gt;" style="rhombus;whiteSpace=wrap;html=1;fontSize=16;fontColor=default;strokeColor=default;fillColor=default;" parent="1" vertex="1">
          <mxGeometry x="273.75" y="410" width="172.5" height="150" as="geometry" />
        </mxCell>
        <mxCell id="mBkj3tF8xL0pVeo7LYhA-26" value="" style="group;fontColor=default;" parent="1" vertex="1" connectable="0">
          <mxGeometry x="13.75" y="750" width="150" height="120" as="geometry" />
        </mxCell>
        <mxCell id="mBkj3tF8xL0pVeo7LYhA-7" value="" style="image;html=1;image=img/lib/clip_art/people/Suit_Man_128x128.png;fontSize=16;fontColor=default;strokeColor=default;fillColor=default;labelBackgroundColor=default;" parent="mBkj3tF8xL0pVeo7LYhA-26" vertex="1">
          <mxGeometry x="35" width="80" height="80" as="geometry" />
        </mxCell>
        <mxCell id="mBkj3tF8xL0pVeo7LYhA-8" value="&lt;div&gt;Вилоят бошқарма&lt;/div&gt;&lt;div&gt;&amp;nbsp;бошлиғи&lt;/div&gt;" style="text;html=1;align=center;verticalAlign=middle;resizable=0;points=[];autosize=1;strokeColor=none;fillColor=none;fontSize=16;fontColor=default;labelBackgroundColor=default;" parent="mBkj3tF8xL0pVeo7LYhA-26" vertex="1">
          <mxGeometry y="80" width="150" height="40" as="geometry" />
        </mxCell>
        <mxCell id="tCPC2FqYTnkMphjOXLfU-115" value="" style="group;fontColor=default;" parent="1" vertex="1" connectable="0">
          <mxGeometry x="498.75" y="750" width="125" height="110" as="geometry" />
        </mxCell>
        <mxCell id="mBkj3tF8xL0pVeo7LYhA-59" value="" style="image;html=1;image=img/lib/clip_art/people/Suit_Man_128x128.png;fontSize=16;fontColor=default;strokeColor=default;fillColor=default;labelBackgroundColor=default;" parent="tCPC2FqYTnkMphjOXLfU-115" vertex="1">
          <mxGeometry x="20" width="80" height="80" as="geometry" />
        </mxCell>
        <mxCell id="mBkj3tF8xL0pVeo7LYhA-60" value="AБКМ раҳбари" style="text;html=1;align=center;verticalAlign=middle;resizable=0;points=[];autosize=1;strokeColor=none;fillColor=none;fontSize=16;fontColor=default;labelBackgroundColor=default;" parent="tCPC2FqYTnkMphjOXLfU-115" vertex="1">
          <mxGeometry x="-5" y="90" width="130" height="20" as="geometry" />
        </mxCell>
        <mxCell id="tCPC2FqYTnkMphjOXLfU-116" style="edgeStyle=orthogonalEdgeStyle;rounded=0;orthogonalLoop=1;jettySize=auto;html=1;entryX=0.5;entryY=0;entryDx=0;entryDy=0;labelBackgroundColor=default;fontSize=14;fontColor=default;strokeColor=default;fillColor=default;" parent="1" target="tCPC2FqYTnkMphjOXLfU-113" edge="1">
          <mxGeometry relative="1" as="geometry">
            <mxPoint x="563.75" y="870" as="sourcePoint" />
            <Array as="points">
              <mxPoint x="563.75" y="1000" />
              <mxPoint x="438.75" y="1000" />
            </Array>
          </mxGeometry>
        </mxCell>
        <mxCell id="mBkj3tF8xL0pVeo7LYhA-37" value="&lt;div&gt;&lt;span style=&quot;font-size: 14px&quot;&gt;Туман инсп&lt;/span&gt;&lt;/div&gt;&lt;div&gt;&lt;span style=&quot;font-size: 14px&quot;&gt;рўли ваканми?&lt;/span&gt;&lt;/div&gt;" style="rhombus;whiteSpace=wrap;html=1;labelBackgroundColor=default;fontSize=16;fontColor=default;strokeColor=default;fillColor=default;" parent="1" vertex="1">
          <mxGeometry x="30" y="930" width="130" height="120" as="geometry" />
        </mxCell>
        <mxCell id="mBkj3tF8xL0pVeo7LYhA-41" value="Бошқарма инспектор бириктириш" style="rounded=1;whiteSpace=wrap;html=1;labelBackgroundColor=#F5F5F5;fontSize=14;fontColor=default;strokeColor=#666666;fillColor=#F5F5F5;" parent="1" vertex="1">
          <mxGeometry x="150" y="1070" width="120" height="60" as="geometry" />
        </mxCell>
        <mxCell id="mBkj3tF8xL0pVeo7LYhA-44" style="edgeStyle=orthogonalEdgeStyle;rounded=0;orthogonalLoop=1;jettySize=auto;html=1;entryX=0.5;entryY=0;entryDx=0;entryDy=0;labelBackgroundColor=default;fontSize=14;fontColor=default;strokeColor=default;" parent="1" source="mBkj3tF8xL0pVeo7LYhA-37" target="mBkj3tF8xL0pVeo7LYhA-41" edge="1">
          <mxGeometry x="-100" y="750" as="geometry">
            <Array as="points">
              <mxPoint x="210" y="990" />
            </Array>
          </mxGeometry>
        </mxCell>
        <mxCell id="mBkj3tF8xL0pVeo7LYhA-47" value="Йўқ" style="edgeLabel;html=1;align=center;verticalAlign=middle;resizable=0;points=[];fontSize=14;fontColor=default;labelBackgroundColor=default;" parent="mBkj3tF8xL0pVeo7LYhA-44" vertex="1" connectable="0">
          <mxGeometry x="0.1923" y="3" relative="1" as="geometry">
            <mxPoint as="offset" />
          </mxGeometry>
        </mxCell>
        <mxCell id="mBkj3tF8xL0pVeo7LYhA-42" value="Туманга бириктириш" style="rounded=1;whiteSpace=wrap;html=1;labelBackgroundColor=#F5F5F5;fontSize=14;fontColor=default;strokeColor=#666666;fillColor=#F5F5F5;" parent="1" vertex="1">
          <mxGeometry x="-60" y="1070" width="120" height="60" as="geometry" />
        </mxCell>
        <mxCell id="mBkj3tF8xL0pVeo7LYhA-43" style="edgeStyle=orthogonalEdgeStyle;rounded=0;orthogonalLoop=1;jettySize=auto;html=1;entryX=0.5;entryY=0;entryDx=0;entryDy=0;labelBackgroundColor=default;fontSize=14;fontColor=default;strokeColor=default;" parent="1" source="mBkj3tF8xL0pVeo7LYhA-37" target="mBkj3tF8xL0pVeo7LYhA-42" edge="1">
          <mxGeometry x="-100" y="750" as="geometry">
            <Array as="points">
              <mxPoint y="990" />
            </Array>
          </mxGeometry>
        </mxCell>
        <mxCell id="mBkj3tF8xL0pVeo7LYhA-45" value="Ҳа" style="edgeLabel;html=1;align=center;verticalAlign=middle;resizable=0;points=[];fontSize=14;fontColor=default;labelBackgroundColor=default;" parent="mBkj3tF8xL0pVeo7LYhA-43" vertex="1" connectable="0">
          <mxGeometry x="0.0606" relative="1" as="geometry">
            <mxPoint as="offset" />
          </mxGeometry>
        </mxCell>
        <mxCell id="mBkj3tF8xL0pVeo7LYhA-54" value="&lt;font style=&quot;font-size: 14px;&quot;&gt;Таалуқлиги бўйича юбориш&lt;/font&gt;" style="shape=ext;double=1;rounded=0;whiteSpace=wrap;html=1;labelBackgroundColor=#F5F5F5;fontSize=12;fontColor=default;strokeColor=#666666;fillColor=#F5F5F5;" parent="1" vertex="1">
          <mxGeometry x="35" y="1220" width="120" height="80" as="geometry" />
        </mxCell>
        <mxCell id="mBkj3tF8xL0pVeo7LYhA-56" style="edgeStyle=orthogonalEdgeStyle;rounded=0;orthogonalLoop=1;jettySize=auto;html=1;entryX=0.5;entryY=0;entryDx=0;entryDy=0;labelBackgroundColor=default;fontSize=14;fontColor=default;strokeColor=default;" parent="1" source="mBkj3tF8xL0pVeo7LYhA-41" target="mBkj3tF8xL0pVeo7LYhA-54" edge="1">
          <mxGeometry x="-100" y="750" as="geometry">
            <Array as="points">
              <mxPoint x="210" y="1170" />
              <mxPoint x="95" y="1170" />
            </Array>
          </mxGeometry>
        </mxCell>
        <mxCell id="mBkj3tF8xL0pVeo7LYhA-55" style="edgeStyle=orthogonalEdgeStyle;rounded=0;orthogonalLoop=1;jettySize=auto;html=1;entryX=0.5;entryY=0;entryDx=0;entryDy=0;labelBackgroundColor=default;fontSize=14;fontColor=default;strokeColor=default;" parent="1" source="mBkj3tF8xL0pVeo7LYhA-42" target="mBkj3tF8xL0pVeo7LYhA-54" edge="1">
          <mxGeometry x="-100" y="750" as="geometry">
            <Array as="points">
              <mxPoint y="1170" />
              <mxPoint x="95" y="1170" />
            </Array>
          </mxGeometry>
        </mxCell>
        <mxCell id="mBkj3tF8xL0pVeo7LYhA-69" value="&lt;font style=&quot;font-size: 14px;&quot;&gt;Узоқ муддатли текшириш&lt;/font&gt;" style="shape=ext;double=1;rounded=0;whiteSpace=wrap;html=1;labelBackgroundColor=#F5F5F5;fontSize=12;fontColor=default;strokeColor=#666666;fillColor=#F5F5F5;" parent="1" vertex="1">
          <mxGeometry x="180" y="1220" width="120" height="80" as="geometry" />
        </mxCell>
        <mxCell id="mBkj3tF8xL0pVeo7LYhA-72" style="edgeStyle=orthogonalEdgeStyle;rounded=0;orthogonalLoop=1;jettySize=auto;html=1;entryX=0.5;entryY=0;entryDx=0;entryDy=0;labelBackgroundColor=default;fontSize=14;fontColor=default;strokeColor=default;" parent="1" source="mBkj3tF8xL0pVeo7LYhA-41" target="mBkj3tF8xL0pVeo7LYhA-69" edge="1">
          <mxGeometry x="-100" y="750" as="geometry">
            <Array as="points">
              <mxPoint x="210" y="1170" />
              <mxPoint x="240" y="1170" />
            </Array>
          </mxGeometry>
        </mxCell>
        <mxCell id="mBkj3tF8xL0pVeo7LYhA-70" value="&lt;font style=&quot;font-size: 14px&quot;&gt;Aнонимлик&lt;/font&gt;" style="shape=ext;double=1;rounded=0;whiteSpace=wrap;html=1;labelBackgroundColor=#F5F5F5;fontSize=12;fontColor=default;strokeColor=#666666;fillColor=#F5F5F5;" parent="1" vertex="1">
          <mxGeometry x="-100" y="1220" width="120" height="80" as="geometry" />
        </mxCell>
        <mxCell id="mBkj3tF8xL0pVeo7LYhA-71" style="edgeStyle=orthogonalEdgeStyle;rounded=0;orthogonalLoop=1;jettySize=auto;html=1;entryX=0.5;entryY=0;entryDx=0;entryDy=0;labelBackgroundColor=default;fontSize=14;fontColor=default;strokeColor=default;" parent="1" source="mBkj3tF8xL0pVeo7LYhA-42" target="mBkj3tF8xL0pVeo7LYhA-70" edge="1">
          <mxGeometry x="-100" y="750" as="geometry">
            <Array as="points">
              <mxPoint y="1170" />
              <mxPoint x="-40" y="1170" />
            </Array>
          </mxGeometry>
        </mxCell>
        <mxCell id="tCPC2FqYTnkMphjOXLfU-235" style="edgeStyle=orthogonalEdgeStyle;rounded=0;orthogonalLoop=1;jettySize=auto;html=1;entryX=0.5;entryY=0;entryDx=0;entryDy=0;labelBackgroundColor=default;fontSize=16;fontColor=default;strokeColor=default;fillColor=default;" parent="1" source="tCPC2FqYTnkMphjOXLfU-1" target="tCPC2FqYTnkMphjOXLfU-197" edge="1">
          <mxGeometry relative="1" as="geometry">
            <Array as="points">
              <mxPoint x="446.75" y="1320" />
              <mxPoint x="446.75" y="1320" />
            </Array>
          </mxGeometry>
        </mxCell>
        <mxCell id="tCPC2FqYTnkMphjOXLfU-1" value="&lt;font style=&quot;font-size: 14px&quot;&gt;Буйруқ чиқариш&lt;/font&gt;" style="shape=ext;double=1;rounded=0;whiteSpace=wrap;html=1;labelBackgroundColor=default;fontSize=12;strokeColor=default;fillColor=default;fontColor=default;" parent="1" vertex="1">
          <mxGeometry x="378.75" y="1220" width="120" height="80" as="geometry" />
        </mxCell>
        <mxCell id="tCPC2FqYTnkMphjOXLfU-4" style="edgeStyle=orthogonalEdgeStyle;rounded=0;orthogonalLoop=1;jettySize=auto;html=1;labelBackgroundColor=default;fontColor=default;strokeColor=default;" parent="1" source="mBkj3tF8xL0pVeo7LYhA-41" target="tCPC2FqYTnkMphjOXLfU-1" edge="1">
          <mxGeometry x="-100" y="750" as="geometry">
            <Array as="points">
              <mxPoint x="209.75" y="1170" />
              <mxPoint x="438.75" y="1170" />
            </Array>
          </mxGeometry>
        </mxCell>
        <mxCell id="tCPC2FqYTnkMphjOXLfU-49" style="edgeStyle=orthogonalEdgeStyle;rounded=0;orthogonalLoop=1;jettySize=auto;html=1;entryX=0.5;entryY=0;entryDx=0;entryDy=0;labelBackgroundColor=default;fontSize=14;fontColor=default;strokeColor=default;" parent="1" target="tCPC2FqYTnkMphjOXLfU-77" edge="1">
          <mxGeometry x="117.5" y="950" as="geometry">
            <mxPoint x="1217.4411764705878" y="1175.0588235294122" as="sourcePoint" />
            <mxPoint x="1291.5" y="1418" as="targetPoint" />
            <Array as="points">
              <mxPoint x="1332.5" y="1175" />
            </Array>
          </mxGeometry>
        </mxCell>
        <mxCell id="tCPC2FqYTnkMphjOXLfU-76" value="Йўқ" style="edgeLabel;html=1;align=center;verticalAlign=middle;resizable=0;points=[];fontSize=14;fontColor=default;labelBackgroundColor=default;" parent="tCPC2FqYTnkMphjOXLfU-49" vertex="1" connectable="0">
          <mxGeometry x="-0.6909" y="-2" relative="1" as="geometry">
            <mxPoint as="offset" />
          </mxGeometry>
        </mxCell>
        <mxCell id="tCPC2FqYTnkMphjOXLfU-58" style="edgeStyle=orthogonalEdgeStyle;rounded=0;orthogonalLoop=1;jettySize=auto;html=1;entryX=0.5;entryY=0;entryDx=0;entryDy=0;labelBackgroundColor=default;fontSize=14;fontColor=default;strokeColor=default;" parent="1" target="tCPC2FqYTnkMphjOXLfU-57" edge="1">
          <mxGeometry x="117.5" y="950" as="geometry">
            <mxPoint x="1107.5588235294117" y="1175.0588235294122" as="sourcePoint" />
          </mxGeometry>
        </mxCell>
        <mxCell id="tCPC2FqYTnkMphjOXLfU-59" value="Ҳа" style="edgeLabel;html=1;align=center;verticalAlign=middle;resizable=0;points=[];fontSize=14;fontColor=default;labelBackgroundColor=default;" parent="tCPC2FqYTnkMphjOXLfU-58" vertex="1" connectable="0">
          <mxGeometry x="-0.278" y="-1" relative="1" as="geometry">
            <mxPoint as="offset" />
          </mxGeometry>
        </mxCell>
        <mxCell id="tCPC2FqYTnkMphjOXLfU-13" value="Тасдиқлашга жўнатиш" style="rounded=1;whiteSpace=wrap;html=1;labelBackgroundColor=default;fontSize=14;fontColor=default;strokeColor=default;fillColor=default;" parent="1" vertex="1">
          <mxGeometry x="1038.75" y="1910" width="120" height="60" as="geometry" />
        </mxCell>
        <mxCell id="tCPC2FqYTnkMphjOXLfU-34" style="edgeStyle=orthogonalEdgeStyle;rounded=0;orthogonalLoop=1;jettySize=auto;html=1;entryX=0.5;entryY=0;entryDx=0;entryDy=0;labelBackgroundColor=default;fontSize=14;fontColor=default;strokeColor=default;" parent="1" source="tCPC2FqYTnkMphjOXLfU-31" edge="1">
          <mxGeometry x="113.75" y="950" as="geometry">
            <mxPoint x="1113.75" y="2240" as="targetPoint" />
            <Array as="points">
              <mxPoint x="1178.75" y="2200" />
              <mxPoint x="1113.75" y="2200" />
            </Array>
          </mxGeometry>
        </mxCell>
        <mxCell id="tCPC2FqYTnkMphjOXLfU-35" style="edgeStyle=orthogonalEdgeStyle;rounded=0;orthogonalLoop=1;jettySize=auto;html=1;entryX=0.5;entryY=0;entryDx=0;entryDy=0;labelBackgroundColor=default;fontSize=14;fontColor=default;strokeColor=default;" parent="1" source="tCPC2FqYTnkMphjOXLfU-28" edge="1">
          <mxGeometry x="113.75" y="950" as="geometry">
            <mxPoint x="1113.75" y="2240" as="targetPoint" />
            <Array as="points">
              <mxPoint x="1018.75" y="2200" />
              <mxPoint x="1113.75" y="2200" />
            </Array>
          </mxGeometry>
        </mxCell>
        <mxCell id="tCPC2FqYTnkMphjOXLfU-36" value="&lt;font style=&quot;font-size: 14px ; background-color: rgb(213 , 232 , 212)&quot;&gt;Ўрганиб чиқилди&lt;/font&gt;" style="shape=ext;double=1;rounded=0;whiteSpace=wrap;html=1;labelBackgroundColor=default;fontSize=12;strokeColor=default;fillColor=#D5E8D4;fontColor=default;" parent="1" vertex="1">
          <mxGeometry x="1053.75" y="2350" width="120" height="80" as="geometry" />
        </mxCell>
        <mxCell id="tCPC2FqYTnkMphjOXLfU-39" style="edgeStyle=orthogonalEdgeStyle;rounded=0;orthogonalLoop=1;jettySize=auto;html=1;labelBackgroundColor=default;fontSize=14;fontColor=default;strokeColor=default;" parent="1" source="tCPC2FqYTnkMphjOXLfU-37" target="tCPC2FqYTnkMphjOXLfU-36" edge="1">
          <mxGeometry x="113.75" y="950" as="geometry" />
        </mxCell>
        <mxCell id="tCPC2FqYTnkMphjOXLfU-37" value="&lt;span style=&quot;font-family: &amp;#34;helvetica&amp;#34; ; font-size: 14px ; font-style: normal ; font-weight: 400 ; letter-spacing: normal ; text-align: center ; text-indent: 0px ; text-transform: none ; word-spacing: 0px ; display: inline ; float: none&quot;&gt;Тасдиғини кутмоқда&lt;/span&gt;" style="rounded=1;whiteSpace=wrap;html=1;labelBackgroundColor=default;fontSize=14;fontColor=default;strokeColor=default;fillColor=default;" parent="1" vertex="1">
          <mxGeometry x="1053.75" y="2240" width="120" height="60" as="geometry" />
        </mxCell>
        <mxCell id="tCPC2FqYTnkMphjOXLfU-57" value="&lt;div&gt;Жарима&lt;/div&gt;&lt;div&gt;қилиндими?&lt;/div&gt;" style="rhombus;whiteSpace=wrap;html=1;labelBackgroundColor=default;fontSize=14;fontColor=default;strokeColor=default;fillColor=default;" parent="1" vertex="1">
          <mxGeometry x="927.5" y="1260" width="120" height="110" as="geometry" />
        </mxCell>
        <mxCell id="tCPC2FqYTnkMphjOXLfU-60" value="Тўлдирилиши керак&#xa; маълумотлар" style="swimlane;fontStyle=0;childLayout=stackLayout;horizontal=1;startSize=50;horizontalStack=0;resizeParent=1;resizeParentMax=0;resizeLast=0;collapsible=1;marginBottom=0;labelBackgroundColor=default;fontSize=14;fontColor=default;strokeColor=default;fillColor=default;" parent="1" vertex="1">
          <mxGeometry x="767.5" y="1420" width="150" height="170" as="geometry" />
        </mxCell>
        <mxCell id="tCPC2FqYTnkMphjOXLfU-61" value="Модда" style="text;strokeColor=none;fillColor=none;align=left;verticalAlign=middle;spacingLeft=4;spacingRight=4;overflow=hidden;points=[[0,0.5],[1,0.5]];portConstraint=eastwest;rotatable=0;labelBackgroundColor=default;fontSize=14;fontColor=default;" parent="tCPC2FqYTnkMphjOXLfU-60" vertex="1">
          <mxGeometry y="50" width="150" height="30" as="geometry" />
        </mxCell>
        <mxCell id="tCPC2FqYTnkMphjOXLfU-62" value="Қисм" style="text;strokeColor=none;fillColor=none;align=left;verticalAlign=middle;spacingLeft=4;spacingRight=4;overflow=hidden;points=[[0,0.5],[1,0.5]];portConstraint=eastwest;rotatable=0;labelBackgroundColor=default;fontSize=14;fontColor=default;" parent="tCPC2FqYTnkMphjOXLfU-60" vertex="1">
          <mxGeometry y="80" width="150" height="30" as="geometry" />
        </mxCell>
        <mxCell id="tCPC2FqYTnkMphjOXLfU-63" value="Изоҳ" style="text;strokeColor=none;fillColor=none;align=left;verticalAlign=middle;spacingLeft=4;spacingRight=4;overflow=hidden;points=[[0,0.5],[1,0.5]];portConstraint=eastwest;rotatable=0;labelBackgroundColor=default;fontSize=14;fontColor=default;" parent="tCPC2FqYTnkMphjOXLfU-60" vertex="1">
          <mxGeometry y="110" width="150" height="30" as="geometry" />
        </mxCell>
        <mxCell id="tCPC2FqYTnkMphjOXLfU-65" value="Документлар (files)" style="text;strokeColor=none;fillColor=none;align=left;verticalAlign=middle;spacingLeft=4;spacingRight=4;overflow=hidden;points=[[0,0.5],[1,0.5]];portConstraint=eastwest;rotatable=0;labelBackgroundColor=default;fontSize=14;fontColor=default;" parent="tCPC2FqYTnkMphjOXLfU-60" vertex="1">
          <mxGeometry y="140" width="150" height="30" as="geometry" />
        </mxCell>
        <mxCell id="tCPC2FqYTnkMphjOXLfU-67" style="edgeStyle=orthogonalEdgeStyle;rounded=0;orthogonalLoop=1;jettySize=auto;html=1;entryX=0.447;entryY=-0.006;entryDx=0;entryDy=0;entryPerimeter=0;labelBackgroundColor=default;fontSize=14;fontColor=default;strokeColor=default;" parent="1" source="tCPC2FqYTnkMphjOXLfU-57" edge="1">
          <mxGeometry x="117.5" y="950" as="geometry">
            <mxPoint x="834.5499999999997" y="1418.9799999999996" as="targetPoint" />
          </mxGeometry>
        </mxCell>
        <mxCell id="tCPC2FqYTnkMphjOXLfU-68" value="Ҳа" style="edgeLabel;html=1;align=center;verticalAlign=middle;resizable=0;points=[];fontSize=14;fontColor=default;labelBackgroundColor=default;" parent="tCPC2FqYTnkMphjOXLfU-67" vertex="1" connectable="0">
          <mxGeometry x="-0.2584" y="-1" relative="1" as="geometry">
            <mxPoint as="offset" />
          </mxGeometry>
        </mxCell>
        <mxCell id="tCPC2FqYTnkMphjOXLfU-69" value="Тўлдирилиши керак&#xa; маълумотлар" style="swimlane;fontStyle=0;childLayout=stackLayout;horizontal=1;startSize=50;horizontalStack=0;resizeParent=1;resizeParentMax=0;resizeLast=0;collapsible=1;marginBottom=0;labelBackgroundColor=default;fontSize=14;fontColor=default;strokeColor=default;fillColor=default;" parent="1" vertex="1">
          <mxGeometry x="1047.5" y="1420" width="150" height="170" as="geometry" />
        </mxCell>
        <mxCell id="tCPC2FqYTnkMphjOXLfU-70" value="Далолатнома (file)" style="text;strokeColor=none;fillColor=none;align=left;verticalAlign=middle;spacingLeft=4;spacingRight=4;overflow=hidden;points=[[0,0.5],[1,0.5]];portConstraint=eastwest;rotatable=0;labelBackgroundColor=default;fontSize=14;fontColor=default;" parent="tCPC2FqYTnkMphjOXLfU-69" vertex="1">
          <mxGeometry y="50" width="150" height="30" as="geometry" />
        </mxCell>
        <mxCell id="tCPC2FqYTnkMphjOXLfU-71" value="Ёзма кўрсатма (file)" style="text;strokeColor=none;fillColor=none;align=left;verticalAlign=middle;spacingLeft=4;spacingRight=4;overflow=hidden;points=[[0,0.5],[1,0.5]];portConstraint=eastwest;rotatable=0;labelBackgroundColor=default;fontSize=14;fontColor=default;" parent="tCPC2FqYTnkMphjOXLfU-69" vertex="1">
          <mxGeometry y="80" width="150" height="30" as="geometry" />
        </mxCell>
        <mxCell id="tCPC2FqYTnkMphjOXLfU-72" value="Тақдимнома (file)" style="text;strokeColor=none;fillColor=none;align=left;verticalAlign=middle;spacingLeft=4;spacingRight=4;overflow=hidden;points=[[0,0.5],[1,0.5]];portConstraint=eastwest;rotatable=0;labelBackgroundColor=default;fontSize=14;fontColor=default;" parent="tCPC2FqYTnkMphjOXLfU-69" vertex="1">
          <mxGeometry y="110" width="150" height="30" as="geometry" />
        </mxCell>
        <mxCell id="tCPC2FqYTnkMphjOXLfU-73" value="Даво аризаси (file)" style="text;strokeColor=none;fillColor=none;align=left;verticalAlign=middle;spacingLeft=4;spacingRight=4;overflow=hidden;points=[[0,0.5],[1,0.5]];portConstraint=eastwest;rotatable=0;labelBackgroundColor=default;fontSize=14;fontColor=default;" parent="tCPC2FqYTnkMphjOXLfU-69" vertex="1">
          <mxGeometry y="140" width="150" height="30" as="geometry" />
        </mxCell>
        <mxCell id="tCPC2FqYTnkMphjOXLfU-74" style="edgeStyle=orthogonalEdgeStyle;rounded=0;orthogonalLoop=1;jettySize=auto;html=1;entryX=0.5;entryY=0;entryDx=0;entryDy=0;labelBackgroundColor=default;fontSize=14;fontColor=default;strokeColor=default;" parent="1" source="tCPC2FqYTnkMphjOXLfU-57" target="tCPC2FqYTnkMphjOXLfU-69" edge="1">
          <mxGeometry x="117.5" y="950" as="geometry">
            <Array as="points">
              <mxPoint x="1122.5" y="1315" />
            </Array>
          </mxGeometry>
        </mxCell>
        <mxCell id="tCPC2FqYTnkMphjOXLfU-75" value="Йўқ" style="edgeLabel;html=1;align=center;verticalAlign=middle;resizable=0;points=[];fontSize=14;fontColor=default;labelBackgroundColor=default;" parent="tCPC2FqYTnkMphjOXLfU-74" vertex="1" connectable="0">
          <mxGeometry x="-0.4" y="1" relative="1" as="geometry">
            <mxPoint as="offset" />
          </mxGeometry>
        </mxCell>
        <mxCell id="tCPC2FqYTnkMphjOXLfU-26" value="" style="group;fontColor=default;strokeColor=none;labelBackgroundColor=default;" parent="1" vertex="1" connectable="0">
          <mxGeometry x="943.75" y="2040" width="150" height="120" as="geometry" />
        </mxCell>
        <mxCell id="tCPC2FqYTnkMphjOXLfU-27" value="" style="image;html=1;image=img/lib/clip_art/people/Suit_Man_128x128.png;fontSize=16;fontColor=default;strokeColor=default;fillColor=default;labelBackgroundColor=default;" parent="tCPC2FqYTnkMphjOXLfU-26" vertex="1">
          <mxGeometry x="35" width="80" height="80" as="geometry" />
        </mxCell>
        <mxCell id="tCPC2FqYTnkMphjOXLfU-28" value="&lt;div&gt;Вилоят бошқарма&lt;/div&gt;&lt;div&gt;&amp;nbsp;бошлиғи&lt;/div&gt;" style="text;html=1;align=center;verticalAlign=middle;resizable=0;points=[];autosize=1;strokeColor=none;fillColor=none;fontSize=16;fontColor=default;labelBackgroundColor=default;" parent="tCPC2FqYTnkMphjOXLfU-26" vertex="1">
          <mxGeometry y="80" width="150" height="40" as="geometry" />
        </mxCell>
        <mxCell id="tCPC2FqYTnkMphjOXLfU-40" style="edgeStyle=orthogonalEdgeStyle;rounded=0;orthogonalLoop=1;jettySize=auto;html=1;entryX=0.5;entryY=0;entryDx=0;entryDy=0;labelBackgroundColor=default;fontSize=12;fontColor=default;strokeColor=default;" parent="1" source="tCPC2FqYTnkMphjOXLfU-13" target="tCPC2FqYTnkMphjOXLfU-27" edge="1">
          <mxGeometry x="113.75" y="950" as="geometry" />
        </mxCell>
        <mxCell id="tCPC2FqYTnkMphjOXLfU-29" value="" style="group;fontColor=default;strokeColor=none;labelBackgroundColor=default;" parent="1" vertex="1" connectable="0">
          <mxGeometry x="1103.75" y="2040" width="150" height="120" as="geometry" />
        </mxCell>
        <mxCell id="tCPC2FqYTnkMphjOXLfU-30" value="" style="image;html=1;image=img/lib/clip_art/people/Suit_Man_128x128.png;fontSize=16;fontColor=default;strokeColor=default;fillColor=default;labelBackgroundColor=default;" parent="tCPC2FqYTnkMphjOXLfU-29" vertex="1">
          <mxGeometry x="35" width="80" height="80" as="geometry" />
        </mxCell>
        <mxCell id="tCPC2FqYTnkMphjOXLfU-31" value="AБКМ раҳбари" style="text;html=1;align=center;verticalAlign=middle;resizable=0;points=[];autosize=1;strokeColor=none;fillColor=none;fontSize=16;fontColor=default;labelBackgroundColor=default;" parent="tCPC2FqYTnkMphjOXLfU-29" vertex="1">
          <mxGeometry x="10" y="90" width="130" height="20" as="geometry" />
        </mxCell>
        <mxCell id="tCPC2FqYTnkMphjOXLfU-41" style="edgeStyle=orthogonalEdgeStyle;rounded=0;orthogonalLoop=1;jettySize=auto;html=1;entryX=0.5;entryY=0;entryDx=0;entryDy=0;labelBackgroundColor=default;fontSize=12;fontColor=default;strokeColor=default;" parent="1" source="tCPC2FqYTnkMphjOXLfU-13" target="tCPC2FqYTnkMphjOXLfU-30" edge="1">
          <mxGeometry x="113.75" y="950" as="geometry" />
        </mxCell>
        <mxCell id="tCPC2FqYTnkMphjOXLfU-77" value="Тўлдирилиши керак&#xa; маълумотлар" style="swimlane;fontStyle=0;childLayout=stackLayout;horizontal=1;startSize=50;horizontalStack=0;resizeParent=1;resizeParentMax=0;resizeLast=0;collapsible=1;marginBottom=0;labelBackgroundColor=default;fontSize=14;fontColor=default;strokeColor=default;fillColor=default;" parent="1" vertex="1">
          <mxGeometry x="1257.5" y="1420" width="150" height="170" as="geometry" />
        </mxCell>
        <mxCell id="tCPC2FqYTnkMphjOXLfU-78" value="Далолатнома (file)" style="text;strokeColor=none;fillColor=none;align=left;verticalAlign=middle;spacingLeft=4;spacingRight=4;overflow=hidden;points=[[0,0.5],[1,0.5]];portConstraint=eastwest;rotatable=0;labelBackgroundColor=default;fontSize=14;fontColor=default;" parent="tCPC2FqYTnkMphjOXLfU-77" vertex="1">
          <mxGeometry y="50" width="150" height="30" as="geometry" />
        </mxCell>
        <mxCell id="tCPC2FqYTnkMphjOXLfU-79" value="Ёзма кўрсатма (file)" style="text;strokeColor=none;fillColor=none;align=left;verticalAlign=middle;spacingLeft=4;spacingRight=4;overflow=hidden;points=[[0,0.5],[1,0.5]];portConstraint=eastwest;rotatable=0;labelBackgroundColor=default;fontSize=14;fontColor=default;" parent="tCPC2FqYTnkMphjOXLfU-77" vertex="1">
          <mxGeometry y="80" width="150" height="30" as="geometry" />
        </mxCell>
        <mxCell id="tCPC2FqYTnkMphjOXLfU-80" value="Тақдимнома (file)" style="text;strokeColor=none;fillColor=none;align=left;verticalAlign=middle;spacingLeft=4;spacingRight=4;overflow=hidden;points=[[0,0.5],[1,0.5]];portConstraint=eastwest;rotatable=0;labelBackgroundColor=default;fontSize=14;fontColor=default;" parent="tCPC2FqYTnkMphjOXLfU-77" vertex="1">
          <mxGeometry y="110" width="150" height="30" as="geometry" />
        </mxCell>
        <mxCell id="tCPC2FqYTnkMphjOXLfU-81" value="Даво аризаси (file)" style="text;strokeColor=none;fillColor=none;align=left;verticalAlign=middle;spacingLeft=4;spacingRight=4;overflow=hidden;points=[[0,0.5],[1,0.5]];portConstraint=eastwest;rotatable=0;labelBackgroundColor=default;fontSize=14;fontColor=default;" parent="tCPC2FqYTnkMphjOXLfU-77" vertex="1">
          <mxGeometry y="140" width="150" height="30" as="geometry" />
        </mxCell>
        <mxCell id="tCPC2FqYTnkMphjOXLfU-227" style="edgeStyle=orthogonalEdgeStyle;rounded=0;orthogonalLoop=1;jettySize=auto;html=1;entryX=0.5;entryY=0;entryDx=0;entryDy=0;labelBackgroundColor=default;fontSize=16;fontColor=default;strokeColor=default;fillColor=default;" parent="1" source="tCPC2FqYTnkMphjOXLfU-84" edge="1">
          <mxGeometry relative="1" as="geometry">
            <mxPoint x="1098.125" y="1790" as="targetPoint" />
          </mxGeometry>
        </mxCell>
        <mxCell id="tCPC2FqYTnkMphjOXLfU-84" value="Фуқарога жавоб хати" style="shape=ext;double=1;rounded=0;whiteSpace=wrap;html=1;labelBackgroundColor=default;fontSize=14;fontColor=default;strokeColor=default;fillColor=default;" parent="1" vertex="1">
          <mxGeometry x="1037.5" y="1660" width="120" height="80" as="geometry" />
        </mxCell>
        <mxCell id="tCPC2FqYTnkMphjOXLfU-85" style="edgeStyle=orthogonalEdgeStyle;rounded=0;orthogonalLoop=1;jettySize=auto;html=1;labelBackgroundColor=default;fontSize=14;fontColor=default;strokeColor=default;fillColor=default;" parent="1" target="tCPC2FqYTnkMphjOXLfU-84" edge="1">
          <mxGeometry x="117.5" y="950" as="geometry">
            <mxPoint x="842.5000000000005" y="1590" as="sourcePoint" />
            <Array as="points">
              <mxPoint x="842.5" y="1620" />
              <mxPoint x="1097.5" y="1620" />
            </Array>
          </mxGeometry>
        </mxCell>
        <mxCell id="tCPC2FqYTnkMphjOXLfU-86" style="edgeStyle=orthogonalEdgeStyle;rounded=0;orthogonalLoop=1;jettySize=auto;html=1;labelBackgroundColor=default;fontSize=14;fontColor=default;strokeColor=default;fillColor=default;" parent="1" source="tCPC2FqYTnkMphjOXLfU-69" target="tCPC2FqYTnkMphjOXLfU-84" edge="1">
          <mxGeometry x="117.5" y="950" as="geometry">
            <Array as="points">
              <mxPoint x="1097.5" y="1610" />
              <mxPoint x="1097.5" y="1610" />
            </Array>
          </mxGeometry>
        </mxCell>
        <mxCell id="tCPC2FqYTnkMphjOXLfU-87" style="edgeStyle=orthogonalEdgeStyle;rounded=0;orthogonalLoop=1;jettySize=auto;html=1;entryX=0.5;entryY=0;entryDx=0;entryDy=0;labelBackgroundColor=default;fontSize=14;fontColor=default;strokeColor=default;fillColor=default;" parent="1" source="tCPC2FqYTnkMphjOXLfU-77" target="tCPC2FqYTnkMphjOXLfU-84" edge="1">
          <mxGeometry x="117.5" y="950" as="geometry">
            <Array as="points">
              <mxPoint x="1332.5" y="1620" />
              <mxPoint x="1097.5" y="1620" />
            </Array>
          </mxGeometry>
        </mxCell>
        <mxCell id="tCPC2FqYTnkMphjOXLfU-90" value="" style="group;fontColor=default;labelBackgroundColor=default;" parent="1" vertex="1" connectable="0">
          <mxGeometry x="667.5" y="950" width="100" height="120" as="geometry" />
        </mxCell>
        <mxCell id="tCPC2FqYTnkMphjOXLfU-91" value="" style="image;html=1;image=img/lib/clip_art/people/Suit_Man_Green_128x128.png;labelBackgroundColor=default;fontSize=16;fontColor=default;strokeColor=default;fillColor=default;" parent="tCPC2FqYTnkMphjOXLfU-90" vertex="1">
          <mxGeometry x="10" width="80" height="80" as="geometry" />
        </mxCell>
        <mxCell id="tCPC2FqYTnkMphjOXLfU-92" value="Инспектор" style="text;html=1;align=center;verticalAlign=middle;resizable=0;points=[];autosize=1;strokeColor=none;fillColor=none;fontSize=16;fontColor=default;labelBackgroundColor=default;" parent="tCPC2FqYTnkMphjOXLfU-90" vertex="1">
          <mxGeometry x="5" y="90" width="90" height="20" as="geometry" />
        </mxCell>
        <mxCell id="tCPC2FqYTnkMphjOXLfU-9" value="&lt;div&gt;&lt;span style=&quot;font-size: 14px&quot;&gt;Қонун&lt;/span&gt;&lt;/div&gt;&lt;div&gt;&lt;span style=&quot;font-size: 14px&quot;&gt;&amp;nbsp;бузилганми?&lt;/span&gt;&lt;/div&gt;" style="rhombus;whiteSpace=wrap;html=1;labelBackgroundColor=default;fontColor=default;strokeColor=default;fillColor=default;" parent="1" vertex="1">
          <mxGeometry x="1107.5" y="1120" width="110" height="110" as="geometry" />
        </mxCell>
        <mxCell id="tCPC2FqYTnkMphjOXLfU-226" style="edgeStyle=orthogonalEdgeStyle;rounded=0;orthogonalLoop=1;jettySize=auto;html=1;entryX=0.5;entryY=0;entryDx=0;entryDy=0;labelBackgroundColor=default;fontSize=16;fontColor=default;strokeColor=default;fillColor=default;" parent="1" source="tCPC2FqYTnkMphjOXLfU-184" target="tCPC2FqYTnkMphjOXLfU-13" edge="1">
          <mxGeometry relative="1" as="geometry">
            <Array as="points">
              <mxPoint x="1099" y="1870" />
              <mxPoint x="1099" y="1870" />
            </Array>
          </mxGeometry>
        </mxCell>
        <mxCell id="tCPC2FqYTnkMphjOXLfU-184" value="Тасдиғини кутмоқда" style="rounded=1;whiteSpace=wrap;html=1;labelBackgroundColor=#F5F5F5;fontSize=14;fontColor=default;strokeColor=default;fillColor=#f5f5f5;" parent="1" vertex="1">
          <mxGeometry x="1035" y="1800" width="125" height="60" as="geometry" />
        </mxCell>
        <mxCell id="tCPC2FqYTnkMphjOXLfU-192" style="edgeStyle=orthogonalEdgeStyle;rounded=0;orthogonalLoop=1;jettySize=auto;html=1;entryX=0.5;entryY=0;entryDx=0;entryDy=0;labelBackgroundColor=default;fontSize=14;fontColor=default;strokeColor=default;fillColor=default;" parent="1" source="tCPC2FqYTnkMphjOXLfU-190" target="tCPC2FqYTnkMphjOXLfU-9" edge="1">
          <mxGeometry x="-6.25" y="900" as="geometry" />
        </mxCell>
        <mxCell id="tCPC2FqYTnkMphjOXLfU-190" value="Инспектор кўриб чиқмоқда" style="rounded=1;whiteSpace=wrap;html=1;labelBackgroundColor=default;fontSize=14;fontColor=default;strokeColor=default;fillColor=default;" parent="1" vertex="1">
          <mxGeometry x="907.4999999999995" y="980" width="120" height="60" as="geometry" />
        </mxCell>
        <mxCell id="tCPC2FqYTnkMphjOXLfU-191" style="edgeStyle=orthogonalEdgeStyle;rounded=0;orthogonalLoop=1;jettySize=auto;html=1;exitX=0.5;exitY=1;exitDx=0;exitDy=0;labelBackgroundColor=default;fontSize=14;fontColor=default;strokeColor=default;fillColor=default;" parent="1" source="tCPC2FqYTnkMphjOXLfU-190" target="tCPC2FqYTnkMphjOXLfU-190" edge="1">
          <mxGeometry x="-6.25" y="900" as="geometry" />
        </mxCell>
        <mxCell id="tCPC2FqYTnkMphjOXLfU-195" style="edgeStyle=orthogonalEdgeStyle;rounded=0;orthogonalLoop=1;jettySize=auto;html=1;entryX=0.5;entryY=0;entryDx=0;entryDy=0;labelBackgroundColor=default;fontSize=14;fontColor=default;strokeColor=default;fillColor=default;" parent="1" source="tCPC2FqYTnkMphjOXLfU-113" target="tCPC2FqYTnkMphjOXLfU-1" edge="1">
          <mxGeometry relative="1" as="geometry" />
        </mxCell>
        <mxCell id="tCPC2FqYTnkMphjOXLfU-113" value="AБКМ кўриб чиқмоқда" style="rounded=1;whiteSpace=wrap;html=1;labelBackgroundColor=default;fontSize=14;fontColor=default;strokeColor=default;fillColor=default;" parent="1" vertex="1">
          <mxGeometry x="378.75" y="1070" width="120" height="60" as="geometry" />
        </mxCell>
        <mxCell id="tCPC2FqYTnkMphjOXLfU-194" style="edgeStyle=orthogonalEdgeStyle;rounded=0;orthogonalLoop=1;jettySize=auto;html=1;labelBackgroundColor=default;fontSize=14;fontColor=default;strokeColor=default;fillColor=default;" parent="1" source="mBkj3tF8xL0pVeo7LYhA-8" target="mBkj3tF8xL0pVeo7LYhA-37" edge="1">
          <mxGeometry relative="1" as="geometry">
            <Array as="points">
              <mxPoint x="94.75" y="880" />
              <mxPoint x="94.75" y="880" />
            </Array>
          </mxGeometry>
        </mxCell>
        <mxCell id="tCPC2FqYTnkMphjOXLfU-199" style="edgeStyle=orthogonalEdgeStyle;rounded=0;orthogonalLoop=1;jettySize=auto;html=1;entryX=0.511;entryY=1.229;entryDx=0;entryDy=0;entryPerimeter=0;labelBackgroundColor=default;fontSize=14;fontColor=default;strokeColor=default;fillColor=default;" parent="1" source="tCPC2FqYTnkMphjOXLfU-197" target="tCPC2FqYTnkMphjOXLfU-92" edge="1">
          <mxGeometry relative="1" as="geometry">
            <Array as="points">
              <mxPoint x="718.75" y="1430" />
            </Array>
          </mxGeometry>
        </mxCell>
        <mxCell id="tCPC2FqYTnkMphjOXLfU-197" value="&lt;div&gt;Инспектор кўриб чиқяпти&lt;/div&gt;&lt;div&gt;(Буйруқ чиқарилган)&lt;/div&gt;" style="rounded=1;whiteSpace=wrap;html=1;labelBackgroundColor=#F5F5F5;fontSize=14;fontColor=default;strokeColor=#666666;fillColor=#F5F5F5;" parent="1" vertex="1">
          <mxGeometry x="373.75" y="1390" width="146.25" height="80" as="geometry" />
        </mxCell>
        <mxCell id="tCPC2FqYTnkMphjOXLfU-200" style="edgeStyle=orthogonalEdgeStyle;rounded=0;orthogonalLoop=1;jettySize=auto;html=1;labelBackgroundColor=default;fontSize=14;fontColor=default;strokeColor=default;fillColor=default;" parent="1" source="tCPC2FqYTnkMphjOXLfU-91" target="tCPC2FqYTnkMphjOXLfU-190" edge="1">
          <mxGeometry relative="1" as="geometry">
            <Array as="points">
              <mxPoint x="803.75" y="1010" />
              <mxPoint x="803.75" y="1010" />
            </Array>
          </mxGeometry>
        </mxCell>
        <mxCell id="tCPC2FqYTnkMphjOXLfU-202" value="&lt;div&gt;&lt;i&gt;Рад қилиш&lt;/i&gt;&lt;/div&gt;&lt;div&gt;&lt;i&gt;йўқ экан&lt;/i&gt;&lt;/div&gt;" style="text;html=1;align=center;verticalAlign=middle;resizable=0;points=[];autosize=1;strokeColor=none;fillColor=default;fontSize=14;fontColor=default;labelBackgroundColor=default;" parent="1" vertex="1">
          <mxGeometry x="953.75" y="2370" width="90" height="40" as="geometry" />
        </mxCell>
        <mxCell id="tCPC2FqYTnkMphjOXLfU-228" value="&lt;div&gt;&lt;i&gt;AБКМ директори&lt;/i&gt;&lt;/div&gt;&lt;div&gt;&lt;i&gt;кўриб чиқаяпти&lt;/i&gt;&lt;/div&gt;" style="text;html=1;align=center;verticalAlign=middle;resizable=0;points=[];autosize=1;strokeColor=none;fillColor=default;fontSize=14;fontColor=default;labelBackgroundColor=default;" parent="1" vertex="1">
          <mxGeometry x="501.25" y="1080" width="130" height="40" as="geometry" />
        </mxCell>
        <mxCell id="tCPC2FqYTnkMphjOXLfU-229" value="&lt;div&gt;&lt;i&gt;Инсп&lt;/i&gt;&lt;/div&gt;&lt;div&gt;&lt;i&gt;бириктириш&lt;/i&gt;&lt;/div&gt;" style="text;html=1;align=center;verticalAlign=middle;resizable=0;points=[];autosize=1;strokeColor=none;fillColor=none;fontSize=14;fontColor=default;labelBackgroundColor=default;" parent="1" vertex="1">
          <mxGeometry x="270" y="1080" width="100" height="40" as="geometry" />
        </mxCell>
        <mxCell id="tCPC2FqYTnkMphjOXLfU-230" value="&lt;div&gt;&lt;i&gt;Инсп кўриб&lt;/i&gt;&lt;/div&gt;&lt;div&gt;&lt;i&gt;чиқяпти&lt;/i&gt;&lt;/div&gt;" style="text;html=1;align=center;verticalAlign=middle;resizable=0;points=[];autosize=1;strokeColor=none;fillColor=default;fontSize=14;fontColor=default;labelBackgroundColor=default;" parent="1" vertex="1">
          <mxGeometry x="278.75" y="1420" width="90" height="40" as="geometry" />
        </mxCell>
        <mxCell id="tCPC2FqYTnkMphjOXLfU-231" value="&lt;i&gt;Тасдиғини &lt;br&gt;кутмоқда&lt;/i&gt;" style="text;html=1;align=center;verticalAlign=middle;resizable=0;points=[];autosize=1;strokeColor=none;fillColor=default;fontSize=14;fontColor=default;labelBackgroundColor=default;" parent="1" vertex="1">
          <mxGeometry x="1173.75" y="1810" width="80" height="40" as="geometry" />
        </mxCell>
        <mxCell id="tCPC2FqYTnkMphjOXLfU-233" value="&lt;div&gt;&lt;i&gt;Тасдиғни&lt;/i&gt;&lt;/div&gt;&lt;div&gt;&lt;i&gt;кутмоқда&lt;/i&gt;&lt;/div&gt;" style="text;html=1;align=center;verticalAlign=middle;resizable=0;points=[];autosize=1;strokeColor=none;fillColor=default;fontSize=14;fontColor=default;labelBackgroundColor=default;" parent="1" vertex="1">
          <mxGeometry x="1183.75" y="2250" width="80" height="40" as="geometry" />
        </mxCell>
        <mxCell id="tCPC2FqYTnkMphjOXLfU-234" value="&lt;i&gt;Ўрганиб &lt;br&gt;чиқилди&lt;/i&gt;" style="text;html=1;align=center;verticalAlign=middle;resizable=0;points=[];autosize=1;strokeColor=none;fillColor=default;fontSize=14;fontColor=default;labelBackgroundColor=default;" parent="1" vertex="1">
          <mxGeometry x="1188.75" y="2370" width="70" height="40" as="geometry" />
        </mxCell>
        <mxCell id="tCPC2FqYTnkMphjOXLfU-253" style="edgeStyle=orthogonalEdgeStyle;rounded=0;orthogonalLoop=1;jettySize=auto;html=1;labelBackgroundColor=default;fontSize=20;fontColor=default;strokeColor=default;fillColor=default;" parent="1" source="tCPC2FqYTnkMphjOXLfU-246" edge="1">
          <mxGeometry relative="1" as="geometry">
            <mxPoint x="560.625" y="750" as="targetPoint" />
            <Array as="points">
              <mxPoint x="430" y="620" />
              <mxPoint x="430" y="715" />
              <mxPoint x="561" y="715" />
            </Array>
          </mxGeometry>
        </mxCell>
        <mxCell id="tCPC2FqYTnkMphjOXLfU-255" value="Ҳа" style="edgeLabel;html=1;align=center;verticalAlign=middle;resizable=0;points=[];fontSize=20;fontColor=default;" parent="tCPC2FqYTnkMphjOXLfU-253" vertex="1" connectable="0">
          <mxGeometry x="-0.5838" relative="1" as="geometry">
            <mxPoint as="offset" />
          </mxGeometry>
        </mxCell>
        <mxCell id="tCPC2FqYTnkMphjOXLfU-254" style="edgeStyle=orthogonalEdgeStyle;rounded=0;orthogonalLoop=1;jettySize=auto;html=1;labelBackgroundColor=default;fontSize=20;fontColor=default;strokeColor=default;fillColor=default;" parent="1" source="tCPC2FqYTnkMphjOXLfU-246" target="mBkj3tF8xL0pVeo7LYhA-59" edge="1">
          <mxGeometry relative="1" as="geometry">
            <Array as="points">
              <mxPoint x="690" y="620" />
              <mxPoint x="690" y="715" />
              <mxPoint x="559" y="715" />
            </Array>
          </mxGeometry>
        </mxCell>
        <mxCell id="tCPC2FqYTnkMphjOXLfU-246" value="&lt;div&gt;Маслахат&lt;/div&gt;&lt;div&gt;сўралганми?&lt;/div&gt;" style="rhombus;whiteSpace=wrap;html=1;labelBackgroundColor=default;fontSize=14;fontColor=default;strokeColor=default;fillColor=default;" parent="1" vertex="1">
          <mxGeometry x="490" y="560" width="141.25" height="120" as="geometry" />
        </mxCell>
        <mxCell id="XyNqBiKXmvF9n_481dfT-4" value="Йўқ" style="edgeLabel;html=1;align=center;verticalAlign=middle;resizable=0;points=[];fontSize=20;fontColor=default;" vertex="1" connectable="0" parent="1">
          <mxGeometry x="680.0033333333334" y="620.0000000000005" as="geometry" />
        </mxCell>
      </root>
    </mxGraphModel>
  </diagram>
</mxfile>
